<svg xmlns="http://www.w3.org/2000/svg" viewBox="0 0 64 64" fill="none">
  <defs>
    <linearGradient id="bgGrad" x1="0" y1="0" x2="64" y2="64" gradientUnits="userSpaceOnUse">
      <stop offset="0%" stop-color="#374151"/>
      <stop offset="100%" stop-color="#1F2937"/>
    </linearGradient>
  </defs>
  <rect width="64" height="64" rx="14" fill="url(#bgGrad)"/>
  <g transform="translate(10, 4)">
    <rect x="18.5" y="0" width="3" height="6" rx="1.5" fill="#9CA3AF"/>
    <circle cx="20" cy="0" r="2" fill="#F59E0B"/>
    <rect x="6" y="6" width="28" height="20" rx="5" fill="#D1D5DB"/>
    <circle cx="14.5" cy="16" r="3.5" fill="#1F2937"/>
    <circle cx="25.5" cy="16" r="3.5" fill="#1F2937"/>
    <circle cx="15.8" cy="14.8" r="1.2" fill="#F3F4F6"/>
    <circle cx="26.8" cy="14.8" r="1.2" fill="#F3F4F6"/>
    <rect x="4" y="28" width="32" height="18" rx="4" fill="#D1D5DB"/>
    <rect x="10" y="31" width="20" height="12" rx="2.5" fill="#F59E0B"/>
    <rect x="13" y="34" width="4" height="2.5" rx="1" fill="#D97706"/>
    <rect x="23" y="34" width="4" height="2.5" rx="1" fill="#D97706"/>
    <rect x="16" y="38" width="8" height="2.5" rx="1" fill="#D97706"/>
    <rect x="0" y="30" width="4" height="11" rx="2" fill="#9CA3AF"/>
    <rect x="36" y="30" width="4" height="11" rx="2" fill="#9CA3AF"/>
    <rect x="8" y="46" width="8" height="4" rx="2" fill="#9CA3AF"/>
    <rect x="24" y="46" width="8" height="4" rx="2" fill="#9CA3AF"/>
    <rect x="3" y="11" width="3.5" height="7" rx="1.75" fill="#F59E0B"/>
    <rect x="33.5" y="11" width="3.5" height="7" rx="1.75" fill="#F59E0B"/>
  </g>
</svg>
